<svg viewBox="-1 -4 13 13" fill="#ffffff" xmlns="http://www.w3.org/2000/svg">
    <circle cx="1" cy="0" r="0.45" /><circle cx="2" cy="0" r="0.45" /><circle cx="6" cy="0" r="0.45" /><circle cx="7" cy="0" r="0.45" /><circle cx="8" cy="0" r="0.45" /><circle cx="9" cy="0" r="0.45" />
    <circle cx="0" cy="1" r="0.45" /><circle cx="1" cy="1" r="0.45" /><circle cx="2" cy="1" r="0.45" /><circle cx="3" cy="1" r="0.45" /><circle cx="4" cy="1" r="0.45" /><circle cx="5" cy="1" r="0.45" /><circle cx="6" cy="1" r="0.45" /><circle cx="10" cy="1" r="0.45" />
    <circle cx="0" cy="2" r="0.45" /><circle cx="4" cy="2" r="0.45" /><circle cx="5" cy="2" r="0.45" /><circle cx="10" cy="2" r="0.45" /><circle cx="11" cy="2" r="0.45" />
    <circle cx="0" cy="3" r="0.45" /><circle cx="4" cy="3" r="0.45" /><circle cx="5" cy="3" r="0.45" /><circle cx="10" cy="3" r="0.45" /><circle cx="11" cy="3" r="0.45" />
    <circle cx="0" cy="4" r="0.45" /><circle cx="1" cy="4" r="0.45" /><circle cx="3" cy="4" r="0.45" /><circle cx="4" cy="4" r="0.45" /><circle cx="5" cy="4" r="0.45" /><circle cx="6" cy="4" r="0.45" /><circle cx="10" cy="4" r="0.45" />
    <circle cx="1" cy="5" r="0.45" /><circle cx="2" cy="5" r="0.45" /><circle cx="3" cy="5" r="0.45" /><circle cx="6" cy="5" r="0.45" /><circle cx="7" cy="5" r="0.45" /><circle cx="8" cy="5" r="0.45" /><circle cx="9" cy="5" r="0.45" />
</svg>
